<svg xmlns="http://www.w3.org/2000/svg" width="28" height="37"><defs><linearGradient id="a" x1="100%" x2="0%" y1="0%" y2="100%"><stop offset="0%" stop-color="#FF7854"/><stop offset="100%" stop-color="#FD267D"/></linearGradient></defs><path fill="url(#a)" fill-rule="evenodd" d="M154.952 192.144c0-2.915 2.388-5.277 5.334-5.277 2.946 0 5.333 2.362 5.333 5.277 0 2.913-2.387 5.275-5.333 5.275-2.945 0-5.334-2.362-5.334-5.275m5.334-12.944c-7.45 0-13.513 5.995-13.513 13.365 0 9.53 11.563 21.922 12.056 22.444a2 2 0 0 0 2.914 0c.493-.522 12.055-12.915 12.055-22.444 0-7.37-6.062-13.365-13.512-13.365" transform="translate(-146 -179)"/></svg>