<svg xmlns="http://www.w3.org/2000/svg" width="14" height="14"><path fill="#556169" fill-rule="evenodd" d="M13.408 6.996l-1.025-.577a5.638 5.638 0 0 0-.22-1.02l.674-.97c.264-.38.294-.931.065-1.225l-.422-.544-.422-.544c-.229-.294-.76-.387-1.179-.207l-1.05.452a5.338 5.338 0 0 0-.966-.48L8.569.817C8.445.367 8.044 0 7.677 0H6.323c-.367 0-.768.368-.892.817l-.294 1.064a5.35 5.35 0 0 0-.967.48l-1.05-.45c-.42-.181-.95-.088-1.179.206l-.422.544-.422.543c-.229.295-.2.846.066 1.227l.674.968c-.104.328-.178.67-.22 1.02l-1.025.578c-.399.224-.659.708-.577 1.075.081.367.15.672.15.678l.152.678c.081.367.52.687.974.712l1.192.064c.181.278.386.538.612.778l-.205 1.215c-.078.46.128.97.459 1.134l.61.302.61.302c.33.163.848.01 1.15-.34l.805-.93a5.325 5.325 0 0 0 .953 0l.805.93c.302.35.82.502 1.15.339l.61-.302.61-.302c.33-.163.537-.673.459-1.133l-.205-1.215c.225-.24.43-.5.611-.779l1.192-.064c.455-.025.893-.345.975-.712.081-.367.15-.672.15-.678l.151-.678c.082-.367-.178-.85-.577-1.075zM7 5a2 2 0 1 1 0 4 2 2 0 0 1 0-4z"/></svg>