<svg xmlns="http://www.w3.org/2000/svg" width="22" height="21"><defs><linearGradient id="a" x1="17.527%" x2="80.195%" y1="100%" y2="15.503%"><stop offset="0%" stop-color="#07D0FF"/><stop offset="100%" stop-color="#3CA4FF"/></linearGradient></defs><path fill="url(#a)" fill-rule="evenodd" d="M55.67 98.495c2.069.232 2.71 2.211 1.175 3.616l-1.79 1.636-1.95 1.782a.622.622 0 0 0 .206-.634l.532 2.59v.001l.489 2.379c.42 2.04-1.265 3.268-3.075 2.234l-2.106-1.201-2.294-1.308c.23.13.445.13.673 0l-.717.409-1.576.899-2.106 1.2c-1.81 1.034-3.495-.192-3.076-2.233l.49-2.38.365-1.78.167-.81a.622.622 0 0 0 .206.635l-.61-.557-1.34-1.225-1.79-1.637c-1.537-1.404-.895-3.384 1.174-3.616l2.408-.269 2.623-.293a.625.625 0 0 0-.543.394l1.089-2.409c.49-1.084.842-1.865 1-2.212.857-1.901 2.941-1.901 3.8 0l1 2.212.747 1.656.341.754a.625.625 0 0 0-.543-.395l2.622.293 2.408.27z" transform="translate(-36 -92)"/></svg>